<?xml version="1.0" standalone="no"?>
<!DOCTYPE svg PUBLIC "-//W3C//DTD SVG 20010904//EN"
 "http://www.w3.org/TR/2001/REC-SVG-20010904/DTD/svg10.dtd">
<svg version="1.0" xmlns="http://www.w3.org/2000/svg"
 width="205.000000pt" height="205.000000pt" viewBox="0 0 205.000000 205.000000"
 preserveAspectRatio="xMidYMid meet">
<metadata>
Created by potrace 1.11, written by Peter Selinger 2001-2013
</metadata>
<g transform="translate(0.000000,205.000000) scale(0.100000,-0.100000)"
fill="#000000" stroke="none">
<path d="M403 1793 l1 -148 414 -5 413 -5 -43 -55 c-24 -30 -53 -66 -65 -80
-11 -14 -142 -174 -290 -356 -147 -182 -329 -406 -403 -498 l-135 -167 0 -164
0 -165 727 0 c721 0 728 0 729 20 0 11 1 77 1 148 l1 127 -507 3 c-278 1 -506
5 -506 8 0 4 186 239 215 270 6 6 179 219 385 473 l375 461 0 140 0 140 -656
0 -657 0 1 -147z"/>
</g>
</svg>
